<?xml version="1.0" standalone="no"?><!DOCTYPE svg PUBLIC "-//W3C//DTD SVG 1.1//EN" "http://www.w3.org/Graphics/SVG/1.1/DTD/svg11.dtd"><svg t="1702051884866" class="icon" viewBox="0 0 1026 1024" version="1.1" xmlns="http://www.w3.org/2000/svg" p-id="11513" xmlns:xlink="http://www.w3.org/1999/xlink" width="250.48828125" height="250"><path d="M283.136 266.752S383.488 281.6 403.968 327.168c19.968 45.056 80.384-140.8 135.68-151.04S640 281.6 660.48 311.808c19.968 30.208 110.592-75.264 165.888-75.264 55.296 0-31.232 315.392-105.472 376.832-77.312 64-283.136 217.6-452.608-120.832 0 0-30.208-85.504-30.208-181.248-0.512-94.72 45.056-44.544 45.056-44.544z" fill="#17E6A1" p-id="11514"></path><path d="M829.952 470.016c-14.848-4.608-29.696 3.584-34.304 18.432-8.704 28.16-20.48 54.272-34.816 78.336-50.688 83.968-139.776 132.096-243.712 132.096s-192.512-48.128-243.712-132.608c-14.336-24.064-26.112-50.688-34.816-78.336-4.608-14.336-19.968-22.528-34.304-18.432-14.336 4.608-22.528 19.456-18.432 34.304 9.728 32.256 23.552 62.464 40.448 90.624 55.296 92.16 152.576 149.504 263.168 157.696v129.024c0 14.848 12.288 27.136 27.648 27.136 15.36 0 27.648-12.288 27.648-27.136V752.64c110.592-8.192 207.872-66.048 263.168-157.696 16.896-28.16 30.208-58.368 40.448-90.624 4.096-14.848-4.096-30.208-18.432-34.304z m12.288-207.36c-8.192-19.456-27.648-32.256-49.152-32.768h-8.192c-49.152 0-93.696 14.848-133.12 30.72-34.304-58.88-66.56-98.304-100.352-122.368l-6.144-4.608c-15.36-9.728-34.304-11.264-50.688-4.096-4.608 2.048-9.216 4.608-13.312 7.68-33.28 24.064-66.56 64-101.376 122.368-38.912-15.872-82.944-29.696-130.56-29.696h-8.192c-21.504 0.512-40.448 13.312-49.152 32.768-18.944 44.544-26.624 97.28-22.528 153.088 1.024 14.336 13.312 25.088 27.648 25.088h2.048c15.36-1.024 26.624-14.336 25.088-29.184-3.584-46.592 2.56-90.624 17.92-126.464h7.168c46.08 0 89.6 17.408 131.072 34.816 12.8 5.632 28.16 0.512 34.816-11.776 35.328-62.976 67.584-104.448 98.304-125.952l1.536-1.536c1.024 0.512 1.536 1.536 2.56 2.048 30.72 22.016 62.464 63.488 97.792 126.976 6.656 12.288 22.016 17.408 35.328 11.776 39.424-17.408 86.016-35.84 133.632-35.84h7.68c14.336 34.304 20.992 75.264 18.432 119.296-1.024 14.848 10.752 28.16 26.112 28.672 14.848 1.024 28.16-10.752 29.184-25.6 2.56-53.248-5.632-103.424-23.552-145.408zM409.6 359.424c-15.36 0-27.648 12.288-27.648 27.136v26.624c0 14.848 12.288 27.136 27.648 27.136 15.36 0 27.648-12.288 27.648-27.136v-26.624c0-14.848-12.288-27.136-27.648-27.136z m215.04 0c-15.36 0-27.648 12.288-27.648 27.136v26.624c0 14.848 12.288 27.136 27.648 27.136 15.36 0 27.648-12.288 27.648-27.136v-26.624c-0.512-14.848-12.8-27.136-27.648-27.136z m-39.424 123.904c-12.8-8.192-29.696-4.608-37.888 7.68 0 0-11.776 17.408-30.208 17.408-17.408 0-28.672-15.872-29.184-16.896-8.192-12.8-25.088-16.384-37.888-8.704-12.8 8.192-16.896 24.576-8.704 37.376 9.728 15.872 36.864 42.496 75.776 42.496 38.912 0 66.048-26.624 76.288-41.984 7.68-12.8 4.096-29.184-8.192-37.376z m233.984 247.296c-9.216-12.288-26.112-14.848-38.4-5.632l-183.296 134.656c-12.288 9.216-14.848 26.112-5.632 38.4 5.632 7.168 13.824 11.264 22.016 11.264 5.632 0 11.264-1.536 16.384-5.12l183.296-134.656c11.776-9.728 14.336-26.624 5.632-38.912z m-381.952 129.024l-183.296-134.656c-12.288-9.216-29.696-6.656-38.4 5.632-9.216 12.288-6.656 29.184 5.632 38.4L404.48 903.68c5.12 3.584 10.752 5.12 16.384 5.12 8.192 0 16.896-3.584 22.016-11.264 9.216-11.776 6.656-29.184-5.632-37.888z" fill="#333333" p-id="11515"></path></svg>