<?xml version="1.0" standalone="no"?><!DOCTYPE svg PUBLIC "-//W3C//DTD SVG 1.1//EN" "http://www.w3.org/Graphics/SVG/1.1/DTD/svg11.dtd"><svg t="1702051667313" class="icon" viewBox="0 0 1026 1024" version="1.1" xmlns="http://www.w3.org/2000/svg" p-id="8615" xmlns:xlink="http://www.w3.org/1999/xlink" width="250.48828125" height="250"><path d="M556.032 160.256L243.2 438.272v440.832h624.128V438.272l-311.296-278.016z" fill="#17E6A1" p-id="8616"></path><path d="M870.4 389.632l-311.808-278.016c-25.088-22.528-62.464-22.528-87.552 0L158.72 389.632c-13.824 12.288-22.016 30.208-22.016 48.64v440.832c0 35.84 29.696 65.536 65.536 65.536h624.128c36.352 0 65.536-29.184 65.536-65.536V438.272c0.512-18.432-7.68-36.352-21.504-48.64z m-44.032 489.472H202.24V438.272l312.832-278.016 311.808 278.016v440.832z m-352.768-277.504v228.864h81.92v-228.864c0-17.92-14.848-32.768-32.768-32.768h-16.384c-18.432 0-32.768 14.336-32.768 32.768z" fill="#333333" p-id="8617"></path></svg>