<?xml version="1.0" standalone="no"?><!DOCTYPE svg PUBLIC "-//W3C//DTD SVG 1.1//EN" "http://www.w3.org/Graphics/SVG/1.1/DTD/svg11.dtd"><svg t="1702052010417" class="icon" viewBox="0 0 1024 1024" version="1.1" xmlns="http://www.w3.org/2000/svg" p-id="12664" xmlns:xlink="http://www.w3.org/1999/xlink" width="250" height="250"><path d="M596.48 154.112l-58.368-58.368-58.88 58.368c-15.36 15.36-24.064 36.352-24.064 58.368 0 22.016 8.704 43.008 24.064 58.88L537.6 329.728 596.48 271.36c32.768-32.256 32.768-84.48 0-117.248zM742.4 306.176c-15.36-16.384-35.84-25.088-57.344-25.088-21.504 0-41.984 8.704-57.344 25.088l-57.344 60.928 57.344 60.928c31.744 33.792 82.944 33.792 114.688 0l57.344-60.928L742.4 306.176z" fill="#bfbfbf" p-id="12665"></path><path d="M663.552 479.232c-27.648 0-55.808-10.752-76.8-31.744L510.464 371.712l-0.512-0.512c0-0.512 0-0.512 0.512-0.512l75.776-75.776 0.512 0.512-0.512-0.512c20.48-20.48 47.616-31.744 76.8-31.744 29.184 0 56.32 11.264 76.8 31.744l75.776 75.776c0.512 0.512 0.512 1.024 0 1.536l-75.776 75.776c-20.992 20.992-48.64 31.232-76.288 31.232z m-151.04-108.032l75.264 75.264c19.968 19.968 46.592 31.232 75.264 31.232s55.296-10.752 75.264-31.232L814.08 371.2l-75.264-75.264c-19.968-19.968-46.592-31.232-75.264-31.232s-55.296 10.752-75.264 31.232l-75.776 75.264z" fill="#bfbfbf" p-id="12666"></path><path d="M371.712 479.232c-29.184 0-56.32-11.264-76.8-31.744L219.136 371.712l-0.512-0.512c0-0.512 0-0.512 0.512-0.512l75.776-75.776c42.496-42.496 111.104-42.496 153.6 0l75.776 75.776 0.512 0.512c0 0.512 0 0.512-0.512 0.512L448.512 448c-20.48 19.968-47.616 31.232-76.8 31.232zM221.184 371.2l75.264 75.264c41.472 41.472 109.056 41.472 150.528 0L522.24 371.2 446.976 295.936c-41.472-41.472-109.056-41.472-150.528 0L221.184 371.2z" fill="#bfbfbf" p-id="12667"></path><path d="M537.6 655.36h-46.08c-0.512 0-1.024-0.512-1.024-1.024V364.544c0-0.512 0.512-1.024 1.024-1.024h46.08c0.512 0 1.024 0.512 1.024 1.024v289.792c0 0.512-0.512 1.024-1.024 1.024z" fill="#bfbfbf" p-id="12668"></path><path d="M517.632 366.592c-0.512 0-0.512 0-0.512-0.512L440.832 290.304c-20.48-20.48-31.744-47.616-31.744-76.8s11.264-56.32 31.744-76.8l75.776-75.776c0.512-0.512 1.024-0.512 1.536 0L593.92 136.704c20.48 20.48 31.744 47.616 31.744 76.8 0 29.184-11.264 56.32-31.744 76.8l-75.776 75.776c0 0.512-0.512 0.512-0.512 0.512zM442.368 288.768l75.264 75.264 75.264-75.264c19.968-19.968 31.232-46.592 31.232-75.264s-10.752-55.296-31.232-75.264l-75.264-75.264L442.368 138.24c-19.968 19.968-31.232 46.592-31.232 75.264s11.264 55.296 31.232 75.264z" fill="#bfbfbf" p-id="12669"></path><path d="M517.632 389.632c-6.144 0-12.288-2.048-16.896-7.168L424.448 306.688c-51.2-51.2-51.2-134.656 0-185.856L500.736 44.544c9.216-9.216 24.576-9.216 33.792 0l75.776 75.776c51.2 51.2 51.2 134.656 0 185.856l-75.776 75.776c-4.608 5.12-10.752 7.68-16.896 7.68zM458.752 272.384l58.88 58.88 58.88-58.88c32.768-32.768 32.768-85.504 0-118.272l-58.88-58.88-58.88 59.392c-15.872 15.872-24.064 36.864-24.064 58.88s8.192 43.52 24.064 58.88zM635.392 959.488H394.24c-44.032 0-88.064-5.12-103.936-68.096v-0.512L250.88 711.168v-0.512c-3.584-18.432 1.536-35.84 14.336-48.64 13.312-13.312 33.28-20.48 56.832-20.48h394.24c17.92 0 35.84 7.68 48.128 20.48 12.8 13.312 17.92 30.72 13.824 48.128l-38.4 181.248c0 0.512-0.512 1.024-0.512 1.536-13.312 41.984-51.2 66.56-103.936 66.56z m-297.984-76.8c8.192 31.744 18.432 35.328 56.832 35.328h241.152c30.72 0 49.152-11.776 56.832-35.84l37.888-180.224v-0.512c1.536-6.656-1.024-11.264-3.584-13.824-3.072-3.072-7.168-5.12-10.752-5.12h-394.24c-6.144 0-14.848 1.024-19.968 6.144-3.584 3.584-5.12 8.704-3.584 15.36l39.424 178.688z" fill="#bfbfbf" p-id="12670"></path><path d="M826.88 654.848H187.392c-1.536 0-3.072-1.536-3.072-3.072v-76.288c0-1.536 1.536-3.072 3.072-3.072h639.488c1.536 0 3.072 1.536 3.072 3.072v76.288c0 2.048-1.536 3.072-3.072 3.072zM187.392 574.464c-0.512 0-1.024 0.512-1.024 1.024v76.288c0 0.512 0.512 1.024 1.024 1.024h639.488c0.512 0 1.024-0.512 1.024-1.024v-76.288c0-0.512-0.512-1.024-1.024-1.024H187.392z" fill="#bfbfbf" p-id="12671"></path><path d="M788.48 677.888H225.28c-35.328 0-64-28.672-64-64s28.672-64 64-64h563.2c35.328 0 64 28.672 64 64 0.512 35.328-28.16 64-64 64zM225.792 597.504c-8.704 0-16.384 7.168-16.384 16.384 0 8.704 7.168 16.384 16.384 16.384h563.2c8.704 0 16.384-7.168 16.384-16.384 0-8.704-7.168-16.384-16.384-16.384h-563.2zM663.552 502.272c-33.792 0-67.584-12.8-93.184-38.4L494.08 388.096c-4.608-4.608-7.168-10.752-7.168-16.896s2.56-12.288 7.168-16.896l75.776-75.776c24.576-24.576 57.856-38.4 93.184-38.4 35.328 0 68.096 13.824 93.184 38.4l75.776 75.776c9.216 9.216 9.216 24.576 0 33.792l-75.776 75.776c-25.6 25.6-59.392 38.4-92.672 38.4z m-118.272-131.072L604.16 430.08c15.872 15.872 36.864 24.064 58.88 24.064 22.528 0 43.52-8.704 58.88-24.064l58.88-58.88L721.92 312.32c-15.872-15.872-36.864-24.064-58.88-24.064-22.528 0-43.52 8.704-58.88 24.064l-58.88 58.88z" fill="#bfbfbf" p-id="12672"></path><path d="M371.712 502.272c-33.792 0-67.584-12.8-93.184-38.4L202.752 388.096c-4.608-4.608-7.168-10.752-7.168-16.896s2.56-12.288 7.168-16.896l75.776-75.776c51.2-51.2 134.656-51.2 185.856 0l75.776 75.776c4.608 4.608 7.168 10.752 7.168 16.896s-2.56 12.288-7.168 16.896L464.896 463.872c-25.6 25.6-59.392 38.4-93.184 38.4zM253.44 371.2L312.832 430.08c32.768 32.768 85.504 32.768 118.272 0l58.88-58.88-59.392-59.392c-32.768-32.768-85.504-32.768-118.272 0L253.44 371.2z" fill="#bfbfbf" p-id="12673"></path></svg>