<?xml version="1.0" standalone="no"?><!DOCTYPE svg PUBLIC "-//W3C//DTD SVG 1.1//EN" "http://www.w3.org/Graphics/SVG/1.1/DTD/svg11.dtd"><svg t="1702049618222" class="icon" viewBox="0 0 1026 1024" version="1.1" xmlns="http://www.w3.org/2000/svg" p-id="7851" xmlns:xlink="http://www.w3.org/1999/xlink" width="200.390625" height="200"><path d="M549.888 182.784c-57.856 0-101.376 15.872-129.536 46.592-44.544 49.152-42.496 125.44-39.424 156.16 3.584 34.304 27.648 99.84 69.12 132.096 7.168 5.632 11.776 14.336 11.776 23.552 0.512 9.216-3.584 17.92-10.752 24.064l-198.656 174.592v127.488h593.92l0.512-127.488-196.608-173.056c-7.168-6.144-10.752-15.36-10.752-24.576 0.512-9.216 4.608-17.92 12.288-23.552 43.52-33.28 65.536-91.136 71.168-134.656 2.048-15.872 10.752-98.304-36.352-152.064-28.672-32.768-74.752-49.152-136.704-49.152z" fill="#bfbfbf" p-id="7852"></path><path d="M852.992 687.616L681.472 537.6c35.328-38.4 59.904-92.16 67.584-150.528 4.096-29.184 11.776-129.536-51.2-201.216-41.472-47.104-103.424-71.168-183.808-71.168-76.288 0-135.68 22.528-175.616 67.072C276.48 249.856 279.04 347.648 283.136 386.048c3.584 35.84 24.576 101.376 66.048 148.992l-173.056 152.064c-13.312 11.776-20.992 28.672-20.992 46.592v127.488c0 34.304 28.16 62.464 62.976 62.464h593.408c34.816 0 62.976-28.16 62.976-62.464v-127.488c-0.512-17.408-8.192-34.304-21.504-46.08z m-41.472 174.08h-593.92v-127.488l198.656-174.592c7.168-6.144 10.752-14.848 10.752-24.064-0.512-9.216-4.608-17.92-11.776-23.552-41.472-32.256-65.536-97.792-69.12-132.096-3.072-30.72-5.632-107.008 39.424-156.16 28.16-30.72 71.68-46.592 129.536-46.592 61.952 0 108.032 16.896 136.704 49.664 47.104 53.76 38.4 136.192 36.352 152.064-5.632 43.52-27.648 101.376-71.168 134.656-7.68 5.632-11.776 14.336-12.288 23.552-0.512 9.216 3.584 18.432 10.752 24.576l197.12 172.544-1.024 127.488zM522.24 628.736h-15.36c-17.408 0-31.232 13.824-31.232 31.232v155.648h78.336v-155.648c-0.512-17.408-14.336-31.232-31.744-31.232z" fill="#bfbfbf" p-id="7853"></path></svg>